<svg width="50" height="50" viewBox="0 0 50 50" fill="none" xmlns="http://www.w3.org/2000/svg">
<path fill-rule="evenodd" clip-rule="evenodd" d="M0 0H50V50H0V0Z" fill="#880000"/>
<path fill-rule="evenodd" clip-rule="evenodd" d="M1.5 3C2.32843 3 3 2.32843 3 1.5C3 0.67157 2.32843 0 1.5 0C0.67157 0 0 0.67157 0 1.5C0 2.32843 0.67157 3 1.5 3ZM1.5 10C2.32843 10 3 9.32843 3 8.5C3 7.67157 2.32843 7 1.5 7C0.67157 7 0 7.67157 0 8.5C0 9.32843 0.67157 10 1.5 10ZM3 15.5C3 16.3284 2.32843 17 1.5 17C0.67157 17 0 16.3284 0 15.5C0 14.6716 0.67157 14 1.5 14C2.32843 14 3 14.6716 3 15.5ZM15.5 3C16.3284 3 17 2.32843 17 1.5C17 0.67157 16.3284 0 15.5 0C14.6716 0 14 0.67157 14 1.5C14 2.32843 14.6716 3 15.5 3ZM17 8.5C17 9.32843 16.3284 10 15.5 10C14.6716 10 14 9.32843 14 8.5C14 7.67157 14.6716 7 15.5 7C16.3284 7 17 7.67157 17 8.5ZM15.5 17C16.3284 17 17 16.3284 17 15.5C17 14.6716 16.3284 14 15.5 14C14.6716 14 14 14.6716 14 15.5C14 16.3284 14.6716 17 15.5 17ZM10 1.5C10 2.32843 9.32843 3 8.5 3C7.67157 3 7 2.32843 7 1.5C7 0.67157 7.67157 0 8.5 0C9.32843 0 10 0.67157 10 1.5ZM8.5 10C9.32843 10 10 9.32843 10 8.5C10 7.67157 9.32843 7 8.5 7C7.67157 7 7 7.67157 7 8.5C7 9.32843 7.67157 10 8.5 10ZM10 15.5C10 16.3284 9.32843 17 8.5 17C7.67157 17 7 16.3284 7 15.5C7 14.6716 7.67157 14 8.5 14C9.32843 14 10 14.6716 10 15.5Z" transform="translate(17 16)" fill="#262628"/>
<mask id="mask0" mask-type="alpha" maskUnits="userSpaceOnUse" x="17" y="16" width="17" height="17">
<path fill-rule="evenodd" clip-rule="evenodd" d="M1.5 3C2.32843 3 3 2.32843 3 1.5C3 0.67157 2.32843 0 1.5 0C0.67157 0 0 0.67157 0 1.5C0 2.32843 0.67157 3 1.5 3ZM1.5 10C2.32843 10 3 9.32843 3 8.5C3 7.67157 2.32843 7 1.5 7C0.67157 7 0 7.67157 0 8.5C0 9.32843 0.67157 10 1.5 10ZM3 15.5C3 16.3284 2.32843 17 1.5 17C0.67157 17 0 16.3284 0 15.5C0 14.6716 0.67157 14 1.5 14C2.32843 14 3 14.6716 3 15.5ZM15.5 3C16.3284 3 17 2.32843 17 1.5C17 0.67157 16.3284 0 15.5 0C14.6716 0 14 0.67157 14 1.5C14 2.32843 14.6716 3 15.5 3ZM17 8.5C17 9.32843 16.3284 10 15.5 10C14.6716 10 14 9.32843 14 8.5C14 7.67157 14.6716 7 15.5 7C16.3284 7 17 7.67157 17 8.5ZM15.5 17C16.3284 17 17 16.3284 17 15.5C17 14.6716 16.3284 14 15.5 14C14.6716 14 14 14.6716 14 15.5C14 16.3284 14.6716 17 15.5 17ZM10 1.5C10 2.32843 9.32843 3 8.5 3C7.67157 3 7 2.32843 7 1.5C7 0.67157 7.67157 0 8.5 0C9.32843 0 10 0.67157 10 1.5ZM8.5 10C9.32843 10 10 9.32843 10 8.5C10 7.67157 9.32843 7 8.5 7C7.67157 7 7 7.67157 7 8.5C7 9.32843 7.67157 10 8.5 10ZM10 15.5C10 16.3284 9.32843 17 8.5 17C7.67157 17 7 16.3284 7 15.5C7 14.6716 7.67157 14 8.5 14C9.32843 14 10 14.6716 10 15.5Z" transform="translate(17 16)" fill="white"/>
</mask>
<g mask="url(#mask0)">
<path fill-rule="evenodd" clip-rule="evenodd" d="M0 0H18V18H0V0Z" transform="translate(16 15)" fill="white"/>
</g>
</svg>
